<svg width="25" height="21" viewBox="0 0 25 21" fill="none" xmlns="http://www.w3.org/2000/svg">
<rect width="25" height="21" fill="#919191"/>
<rect width="1920" height="1080" transform="translate(-1846 -117)" fill="#FBFBFB"/>
<rect x="-45" y="-32" width="114" height="990" rx="5" fill="white"/>
<path d="M8 0H1.14286C0.511674 0 0 0.511675 0 1.14286C0 1.77404 0.511675 2.28571 1.14286 2.28571H8C8.63118 2.28571 9.14286 1.77404 9.14286 1.14286C9.14286 0.511675 8.63118 0 8 0Z" fill="rgb(143, 129, 255)"/>
<path opacity="0.4" d="M22.8571 9.14258H1.14286C0.511675 9.14258 0 9.65425 0 10.2854C0 10.9166 0.511675 11.4283 1.14286 11.4283H22.8571C23.4883 11.4283 24 10.9166 24 10.2854C24 9.65425 23.4883 9.14258 22.8571 9.14258Z" fill="rgb(143, 129, 255)"/>
<path d="M22.8588 18.2856H10.2874C9.65621 18.2856 9.14453 18.7973 9.14453 19.4285C9.14453 20.0597 9.65621 20.5714 10.2874 20.5714H22.8588C23.49 20.5714 24.0017 20.0597 24.0017 19.4285C24.0017 18.7973 23.49 18.2856 22.8588 18.2856Z" fill="rgb(143, 129, 255)"/>
</svg>
