<svg width="20" height="20" viewBox="0 0 20 20" fill="none" xmlns="http://www.w3.org/2000/svg">
<g clip-path="url(#clip0_0_3)">
<path opacity="0.4" d="M20 10C20 11.9778 19.4135 13.9112 18.3147 15.5557C17.2159 17.2002 15.6541 18.4819 13.8268 19.2388C11.9996 19.9957 9.98891 20.1937 8.0491 19.8079C6.10929 19.422 4.32746 18.4696 2.92894 17.0711C1.53041 15.6725 0.578004 13.8907 0.192152 11.9509C-0.193701 10.0111 0.00433284 8.00043 0.761209 6.17317C1.51809 4.3459 2.79981 2.78412 4.4443 1.6853C6.08879 0.58649 8.02219 0 10 0C12.6522 0 15.1957 1.05357 17.0711 2.92893C18.9464 4.8043 20 7.34784 20 10Z" fill="#5A4BD2"/>
<path d="M14.49 9.61C14.8884 9.10188 15.1065 8.47569 15.11 7.83C15.0898 7.06195 14.7756 6.33092 14.2324 5.78764C13.6891 5.24436 12.9581 4.93022 12.19 4.91H11.31V3.5C11.31 3.30109 11.231 3.11032 11.0903 2.96967C10.9497 2.82902 10.7589 2.75 10.56 2.75C10.3611 2.75 10.1703 2.82902 10.0297 2.96967C9.88902 3.11032 9.81 3.30109 9.81 3.5V4.92H8.6V3.5C8.59869 3.30149 8.51925 3.11149 8.37889 2.97112C8.23852 2.83075 8.04851 2.75131 7.85 2.75C7.75274 2.75104 7.65665 2.7713 7.56725 2.8096C7.47785 2.84791 7.3969 2.90351 7.32906 2.97321C7.26122 3.04291 7.20782 3.12533 7.17195 3.21574C7.13607 3.30614 7.11842 3.40275 7.12 3.5V4.92H5.05C4.85109 4.92 4.66033 4.99902 4.51967 5.13967C4.37902 5.28032 4.3 5.47109 4.3 5.67C4.3 5.86891 4.37902 6.05968 4.51967 6.20033C4.66033 6.34098 4.85109 6.42 5.05 6.42H6.03V13.58H5.05C4.85109 13.58 4.66033 13.659 4.51967 13.7997C4.37902 13.9403 4.3 14.1311 4.3 14.33C4.3 14.5289 4.37902 14.7197 4.51967 14.8603C4.66033 15.001 4.85109 15.08 5.05 15.08H7.11V16.5C7.11 16.6989 7.18902 16.8897 7.32967 17.0303C7.47033 17.171 7.66109 17.25 7.86 17.25C8.05892 17.25 8.24968 17.171 8.39033 17.0303C8.53099 16.8897 8.61 16.6989 8.61 16.5V15.08H9.82V16.5C9.82 16.6989 9.89902 16.8897 10.0397 17.0303C10.1803 17.171 10.3711 17.25 10.57 17.25C10.7689 17.25 10.9597 17.171 11.1003 17.0303C11.241 16.8897 11.32 16.6989 11.32 16.5V15.08H12.97C13.7847 15.1179 14.5814 14.8322 15.1864 14.2853C15.7914 13.7383 16.1558 12.9744 16.2 12.16C16.1837 11.6171 16.0146 11.0899 15.7121 10.6388C15.4096 10.1878 14.986 9.83117 14.49 9.61ZM8.84 6.42H12.2C12.5708 6.43795 12.9217 6.59332 13.1842 6.85583C13.4467 7.11834 13.602 7.46919 13.62 7.84C13.6187 8.2162 13.4687 8.57662 13.2026 8.84264C12.9366 9.10865 12.5762 9.25868 12.2 9.26H7.53V6.42H8.84ZM12.97 13.58H7.53V10.75H12.97C13.3868 10.7135 13.8012 10.8417 14.1246 11.1072C14.448 11.3726 14.6545 11.7541 14.7 12.17C14.6521 12.5841 14.4445 12.9631 14.1214 13.2264C13.7983 13.4898 13.3852 13.6166 12.97 13.58Z" fill="#5A4BD2"/>
</g>
<defs>
<clipPath id="clip0_0_3">
<rect width="20" height="20" fill="white"/>
</clipPath>
</defs>
</svg>
