<svg xmlns="http://www.w3.org/2000/svg" width="31.518" height="31.518" viewBox="0 0 31.518 31.518">
  <g id="vuesax_bulk_coin" data-name="vuesax/bulk/coin" transform="translate(-684 -444)">
    <g id="coin" transform="translate(684 444)">
      <path  d="M20.61,10.305A10.305,10.305,0,1,1,10.305,0,10.305,10.305,0,0,1,20.61,10.305Z" transform="translate(2.58 2.58)" fill="#7162e6" opacity="0.4"/>
      <path  data-name="Vector" d="M14.045,6.333A7.711,7.711,0,0,1,0,10.731,12.2,12.2,0,0,0,10.731,0,7.7,7.7,0,0,1,14.045,6.333Z" transform="translate(13.729 13.728)" fill="#5a4bd2"/>
      <path  data-name="Vector" d="M5.417,5.224,2.322,4.14c-.31-.1-.374-.129-.374-.58a.568.568,0,0,1,.529-.606H4.411a.8.8,0,0,1,.748.838.967.967,0,0,0,1.935,0,2.739,2.739,0,0,0-2.58-2.76V.967a.967.967,0,1,0-1.935,0v.064H2.463A2.505,2.505,0,0,0,0,3.573a2.292,2.292,0,0,0,1.664,2.4L4.772,7.055c.31.1.374.129.374.58a.568.568,0,0,1-.529.606H2.683A.8.8,0,0,1,1.935,7.4a.974.974,0,0,0-.967-.967A.974.974,0,0,0,0,7.4a2.739,2.739,0,0,0,2.58,2.76v.077a.967.967,0,0,0,1.935,0v-.064H4.63A2.505,2.505,0,0,0,7.094,7.635,2.326,2.326,0,0,0,5.417,5.224Z" transform="translate(9.572 7.508)" fill="#7162e6"/>
      <path id="Vector-4" data-name="Vector" d="M0,0H31.518V31.518H0Z" fill="none" opacity="0"/>
    </g>
  </g>
</svg>
