<svg width="32" height="32" viewBox="0 0 32 32" fill="none" xmlns="http://www.w3.org/2000/svg">
    <path opacity="0.4" d="M27.2133 9.27992V13.0666L9.86662 25.7866L6.35995 23.1599C5.49329 22.5066 4.78662 21.1066 4.78662 20.0266V9.27992C4.78662 7.78659 5.93329 6.13326 7.33329 5.61326L14.6266 2.87992C15.3866 2.59992 16.6133 2.59992 17.3733 2.87992L24.6666 5.61326C26.0666 6.13326 27.2133 7.78659 27.2133 9.27992Z" fill="#474FE8"/>
    <path d="M27.2134 14.8933V20.0266C27.2134 21.1066 26.5067 22.5066 25.6401 23.16L18.3467 28.6133C17.7067 29.0933 16.8534 29.3333 16.0001 29.3333C15.1467 29.3333 14.2934 29.0933 13.6534 28.6133L11.0934 26.7066L27.2134 14.8933Z" fill="#474FE8"/>
</svg>
